<svg id="Capa_1" data-name="Capa 1" xmlns="http://www.w3.org/2000/svg" xmlns:xlink="http://www.w3.org/1999/xlink" viewBox="0 0 1000.32 1000.32"><defs><style>.cls-1{fill:#020d1e;}.cls-2{fill:url(#Degradado_sin_nombre_15);}.cls-3{fill:url(#Degradado_sin_nombre_15-2);}.cls-4{fill:url(#Degradado_sin_nombre_15-3);}</style><linearGradient id="Degradado_sin_nombre_15" x1="1507.69" y1="820.83" x2="-1503.6" y2="-113.21" gradientUnits="userSpaceOnUse"><stop offset="0" stop-color="#51bbbe"/><stop offset="0.15" stop-color="#49b5c7"/><stop offset="0.39" stop-color="#32a6e1"/><stop offset="0.57" stop-color="#1d98f8"/><stop offset="0.99" stop-color="#020d1e"/></linearGradient><linearGradient id="Degradado_sin_nombre_15-2" x1="3521.71" y1="1199.22" x2="-219.29" y2="333.29" xlink:href="#Degradado_sin_nombre_15"/><linearGradient id="Degradado_sin_nombre_15-3" x1="3500.13" y1="1376.18" x2="-240.88" y2="510.25" xlink:href="#Degradado_sin_nombre_15"/></defs><title>favicon</title><circle class="cls-1" cx="500.16" cy="500.16" r="500.16"/><path class="cls-2" d="M390.45,391.06a8.79,8.79,0,0,1,2.27-6.14,7.65,7.65,0,0,1,5.93-2.51h140.5a61,61,0,0,1,24.39,5,66.57,66.57,0,0,1,20.3,13.43,61.63,61.63,0,0,1,13.68,20,60.68,60.68,0,0,1,5,24.35,55.28,55.28,0,0,1-6.7,26.86A69.74,69.74,0,0,1,578.54,493a75.82,75.82,0,0,1,22.32,23.9,60.76,60.76,0,0,1,8.51,31.63,65.71,65.71,0,0,1-5.48,26.63,69.72,69.72,0,0,1-36.71,36.64,66.13,66.13,0,0,1-26.68,5.46H398.65a7.8,7.8,0,0,1-8.2-8.19Zm35,22.76v172H537.12q17.25,0,28.36-11.15a36.91,36.91,0,0,0,11.12-27.08A41.34,41.34,0,0,0,567.27,521q-9.33-11.61-26.62-11.61H459.17a7.82,7.82,0,0,1-8.19-8.19V487.55a7.8,7.8,0,0,1,8.19-8.19h77.38q15.47,0,24.35-9.79a33.07,33.07,0,0,0,8.87-23A31.26,31.26,0,0,0,560,423.38q-9.74-9.57-24.26-9.56Z" transform="translate(0.25 0.32)"/><path class="cls-3" d="M707.1,723.72a303.7,303.7,0,0,1-206.84,81c-168.37,0-304.85-136.49-304.85-304.86S331.89,195,500.26,195A303.7,303.7,0,0,1,707.1,276a255.27,255.27,0,0,1,57.1-23.76c-66.05-70.36-159.83-114.37-263.94-114.37-199.94,0-362,162.08-362,362s162.07,362,362,362c104.11,0,197.89-44,263.94-114.38A255.27,255.27,0,0,1,707.1,723.72Z" transform="translate(0.25 0.32)"/><polyline class="cls-4" points="652.23 681.17 785.61 681.17 785.61 814.54"/></svg>