<svg id="Capa_1" data-name="Capa 1" xmlns="http://www.w3.org/2000/svg" xmlns:xlink="http://www.w3.org/1999/xlink" viewBox="0 0 832.18 150"><defs><style>.cls-1{fill:url(#Degradado_sin_nombre_15);}.cls-2{fill:url(#Degradado_sin_nombre_15-2);}.cls-3{fill:url(#Degradado_sin_nombre_15-3);}.cls-4{fill:url(#Degradado_sin_nombre_15-4);}.cls-5{fill:url(#Degradado_sin_nombre_15-5);}.cls-6{fill:url(#Degradado_sin_nombre_15-6);}.cls-7{fill:url(#Degradado_sin_nombre_15-7);}.cls-8{fill:url(#Degradado_sin_nombre_15-8);}.cls-9{fill:url(#Degradado_sin_nombre_15-9);}.cls-10{fill:url(#Degradado_sin_nombre_15-10);}.cls-11{fill:#fff;}</style><linearGradient id="Degradado_sin_nombre_15" x1="664" y1="249.24" x2="-237" y2="-30.23" gradientUnits="userSpaceOnUse"><stop offset="0" stop-color="#51bbbe"/><stop offset="0.15" stop-color="#49b5c7"/><stop offset="0.39" stop-color="#32a6e1"/><stop offset="0.57" stop-color="#1d98f8"/><stop offset="0.99" stop-color="#020d1e"/></linearGradient><linearGradient id="Degradado_sin_nombre_15-2" x1="669.78" y1="230.59" x2="-231.22" y2="-48.88" xlink:href="#Degradado_sin_nombre_15"/><linearGradient id="Degradado_sin_nombre_15-3" x1="675.97" y1="210.65" x2="-225.03" y2="-68.82" xlink:href="#Degradado_sin_nombre_15"/><linearGradient id="Degradado_sin_nombre_15-4" x1="681.13" y1="194.02" x2="-219.88" y2="-85.45" xlink:href="#Degradado_sin_nombre_15"/><linearGradient id="Degradado_sin_nombre_15-5" x1="690.2" y1="164.78" x2="-210.81" y2="-114.69" xlink:href="#Degradado_sin_nombre_15"/><linearGradient id="Degradado_sin_nombre_15-6" x1="694.81" y1="149.91" x2="-206.19" y2="-129.57" xlink:href="#Degradado_sin_nombre_15"/><linearGradient id="Degradado_sin_nombre_15-7" x1="702.98" y1="123.57" x2="-198.02" y2="-155.9" xlink:href="#Degradado_sin_nombre_15"/><linearGradient id="Degradado_sin_nombre_15-8" x1="709.41" y1="102.84" x2="-191.59" y2="-176.63" xlink:href="#Degradado_sin_nombre_15"/><linearGradient id="Degradado_sin_nombre_15-9" x1="657.57" y1="256.17" x2="-243.43" y2="-23.3" xlink:href="#Degradado_sin_nombre_15"/><linearGradient id="Degradado_sin_nombre_15-10" x1="653.68" y1="287.39" x2="-247.32" y2="7.92" xlink:href="#Degradado_sin_nombre_15"/></defs><title>logo-chainback1</title><path class="cls-1" d="M71.69,48.44a2.16,2.16,0,0,1,.69-1.7A2.32,2.32,0,0,1,74,46.13h5.18a2.36,2.36,0,0,1,1.63.61,2.19,2.19,0,0,1,.68,1.7v53.12a2.24,2.24,0,0,1-.68,1.63,2.21,2.21,0,0,1-1.63.68H74a2.18,2.18,0,0,1-1.63-.68,2.21,2.21,0,0,1-.69-1.63ZM88.45,71.73a2.32,2.32,0,0,1,2.31-2.31H123v-21a2.22,2.22,0,0,1,.69-1.63,2.28,2.28,0,0,1,1.65-.68h5.11a2.29,2.29,0,0,1,1.66.68,2.22,2.22,0,0,1,.69,1.63v53.12a2.21,2.21,0,0,1-.69,1.63,2.25,2.25,0,0,1-1.66.68h-5.11a2.24,2.24,0,0,1-1.65-.68,2.21,2.21,0,0,1-.69-1.63V78H90.76a2.33,2.33,0,0,1-1.63-.62,2.14,2.14,0,0,1-.68-1.7Z" transform="translate(1.52)"/><path class="cls-2" d="M177.24,48.44a3.8,3.8,0,0,1,1.43-1.63,3.6,3.6,0,0,1,2-.68h4.9a3.6,3.6,0,0,1,2,.68,5.06,5.06,0,0,1,1.57,1.63l28.19,53.12a4.36,4.36,0,0,1,.27,1.09c0,.81-.46,1.22-1.36,1.22h-6.27a2.79,2.79,0,0,1-2.45-1.63l-6.4-12H174.51c-.9,0-1.36-.41-1.36-1.22a4.46,4.46,0,0,1,.27-1.09l2.18-4.22a2.81,2.81,0,0,1,2.45-1.64h18.66L183,55.25l-24,47a2.43,2.43,0,0,1-1,1.15,2.68,2.68,0,0,1-1.43.48h-5.86c-.91,0-1.36-.41-1.36-1.22a4.36,4.36,0,0,1,.27-1.09Z" transform="translate(1.52)"/><path class="cls-3" d="M233.75,48.44a2.32,2.32,0,0,1,2.32-2.31h5.17a2.32,2.32,0,0,1,2.32,2.31v53.12a2.32,2.32,0,0,1-2.32,2.31h-5.17a2.32,2.32,0,0,1-2.32-2.31Z" transform="translate(1.52)"/><path class="cls-4" d="M267.39,48.44a2.16,2.16,0,0,1,.68-1.7,2.34,2.34,0,0,1,1.63-.61h2.73a5.36,5.36,0,0,1,2.24.61,8.65,8.65,0,0,1,2.39,1.7l41.4,42.08V48.44a2.36,2.36,0,0,1,.61-1.63,2.19,2.19,0,0,1,1.7-.68h4.36a2.32,2.32,0,0,1,2.32,2.31v53.12a2.32,2.32,0,0,1-2.32,2.31h-4.49a2,2,0,0,1-1.77-.82L267.39,50.76Zm0,12.4c0-.46.14-.68.41-.68a3.21,3.21,0,0,1,1.22.68l6,6a9.59,9.59,0,0,1,1,1.43,2.84,2.84,0,0,1,.41,1.29v32a2.35,2.35,0,0,1-.62,1.63,2.13,2.13,0,0,1-1.7.68H269.7a2.32,2.32,0,0,1-2.31-2.31Z" transform="translate(1.52)"/><path class="cls-5" d="M355.91,36.19a2.6,2.6,0,0,1,.68-1.84,2.27,2.27,0,0,1,1.77-.75h42a18.24,18.24,0,0,1,7.3,1.5,19.84,19.84,0,0,1,6.07,4,18.4,18.4,0,0,1,4.1,6,18.14,18.14,0,0,1,1.5,7.28,16.58,16.58,0,0,1-2,8,21,21,0,0,1-5.18,6.26,22.81,22.81,0,0,1,6.68,7.15,18.28,18.28,0,0,1,2.54,9.47,19.49,19.49,0,0,1-1.64,8,20.88,20.88,0,0,1-11,11,19.78,19.78,0,0,1-8,1.63H358.36a2.33,2.33,0,0,1-2.45-2.45ZM366.39,43V94.47h33.4a11.5,11.5,0,0,0,8.49-3.33A11.06,11.06,0,0,0,411.61,83a12.36,12.36,0,0,0-2.8-8,9.6,9.6,0,0,0-8-3.47H376.47a2.37,2.37,0,0,1-1.77-.69,2.4,2.4,0,0,1-.68-1.77V65.06a2.33,2.33,0,0,1,2.45-2.45h23.15a9.35,9.35,0,0,0,7.29-2.93,9.89,9.89,0,0,0,2.65-6.88,9.33,9.33,0,0,0-2.92-6.94A9.93,9.93,0,0,0,399.38,43Z" transform="translate(1.52)"/><path class="cls-6" d="M462.4,48.44a3.87,3.87,0,0,1,1.43-1.63,3.63,3.63,0,0,1,2-.68h4.9a3.6,3.6,0,0,1,2,.68,4.93,4.93,0,0,1,1.56,1.63l28.19,53.12a4.54,4.54,0,0,1,.28,1.09c0,.81-.46,1.22-1.37,1.22h-6.26a2.79,2.79,0,0,1-2.45-1.63l-6.4-12H459.68c-.91,0-1.36-.41-1.36-1.22a4.46,4.46,0,0,1,.27-1.09l2.18-4.22a2.8,2.8,0,0,1,2.45-1.64h18.66L468.12,55.25l-24,47a2.5,2.5,0,0,1-1,1.15,2.65,2.65,0,0,1-1.43.48h-5.85c-.91,0-1.36-.41-1.36-1.22a4.36,4.36,0,0,1,.27-1.09Z" transform="translate(1.52)"/><path class="cls-7" d="M518.1,53.07A7.33,7.33,0,0,1,520,48.44a6.34,6.34,0,0,1,5.17-2.31h43.31a2.18,2.18,0,0,1,1.7.68,2.37,2.37,0,0,1,.62,1.63v4a2.38,2.38,0,0,1-.62,1.64,2.18,2.18,0,0,1-1.7.68H527.91V95.29h42.21a2.2,2.2,0,0,1,1.71.68,2.37,2.37,0,0,1,.61,1.64v4a2.34,2.34,0,0,1-.61,1.63,2.17,2.17,0,0,1-1.71.68H525.05a6.45,6.45,0,0,1-5-2.11,7,7,0,0,1-1.91-4.83Z" transform="translate(1.52)"/><path class="cls-8" d="M648.43,102.24c.73.54,1.09,1,1.09,1.36q0,.27-.54.27H637.54a4.65,4.65,0,0,1-1.5-.34,4.34,4.34,0,0,1-1.64-1L601.17,77.72v23.84a2.32,2.32,0,0,1-2.31,2.31h-5.18a2.32,2.32,0,0,1-2.31-2.31V48.44a2.16,2.16,0,0,1,.68-1.7,2.34,2.34,0,0,1,1.63-.61h5.18a2.34,2.34,0,0,1,1.63.61,2.16,2.16,0,0,1,.68,1.7V67.65ZM615.2,69.55a2.09,2.09,0,0,1-.68.27.74.74,0,0,1-.54-.27l-4.63-3a1.17,1.17,0,0,1-.41-.82,1.27,1.27,0,0,1,.41-.95l24-17.84a2.85,2.85,0,0,1,1.37-.75,9,9,0,0,1,1.22-.07h9.94c.28,0,.41.09.41.27s-.32.55-1,1.09Z" transform="translate(1.52)"/><path class="cls-9" d="M116.33,121.38a63.16,63.16,0,1,1,0-92.76,52.66,52.66,0,0,1,11.83-4.92,75,75,0,1,0,0,102.6A52.66,52.66,0,0,1,116.33,121.38Z" transform="translate(1.52)"/><polyline class="cls-10" points="106.76 112.5 134.39 112.5 134.39 140.13"/><path class="cls-11" d="M675.6,81V95.71h-3.69V77.27h16.6a7.38,7.38,0,0,1,5.21,12.59l-.33.32.33.31a7.37,7.37,0,0,1-5.21,12.59h-16.6V99.4h16.6a3.52,3.52,0,0,0,2.6-1.08,3.69,3.69,0,0,0,0-5.22,3.52,3.52,0,0,0-2.6-1.08h-9.23V88.33h9.23a3.52,3.52,0,0,0,2.6-1.08,3.68,3.68,0,0,0-2.6-6.29Z" transform="translate(1.52)"/><path class="cls-11" d="M721.7,77.27V81H703.26V99.4H721.7v3.68H699.57V77.27Zm0,14.75H707V88.33H721.7Z" transform="translate(1.52)"/><path class="cls-11" d="M747.52,81H725.39V77.27h22.13Zm-9.22,22.12h-3.69V84.64h3.69Z" transform="translate(1.52)"/><path class="cls-11" d="M748,99.4h12.41v3.68H742.11L755.81,75l13.71,28.08H765.4l-9.59-19.67Z" transform="translate(1.52)"/><path class="cls-11" d="M788.62,103.75h-4.11V79.14h-4.1V75h8.21Z" transform="translate(1.52)"/><path class="cls-11" d="M796.82,103.75h-4.1V99.64h4.1Z" transform="translate(1.52)"/><path class="cls-11" d="M815.28,104.77A15.38,15.38,0,0,1,804.4,78.51a15.38,15.38,0,1,1,21.75,21.76A14.8,14.8,0,0,1,815.28,104.77Zm0-4.1a11.27,11.27,0,1,0-8-3.3A10.86,10.86,0,0,0,815.28,100.67Z" transform="translate(1.52)"/></svg>