<svg id="Capa_1" data-name="Capa 1" xmlns="http://www.w3.org/2000/svg" xmlns:xlink="http://www.w3.org/1999/xlink" viewBox="0 0 1000 230.4"><defs><style>.cls-1{fill:url(#Degradado_sin_nombre_15);}.cls-2{fill:url(#Degradado_sin_nombre_15-2);}.cls-3{fill:url(#Degradado_sin_nombre_15-3);}.cls-4{fill:url(#Degradado_sin_nombre_15-4);}.cls-5{fill:url(#Degradado_sin_nombre_15-5);}.cls-6{fill:url(#Degradado_sin_nombre_15-6);}.cls-7{fill:url(#Degradado_sin_nombre_15-7);}.cls-8{fill:url(#Degradado_sin_nombre_15-8);}.cls-9{fill:url(#Degradado_sin_nombre_15-9);}.cls-10{fill:url(#Degradado_sin_nombre_15-10);}</style><linearGradient id="Degradado_sin_nombre_15" x1="1022.24" y1="382.63" x2="-361.71" y2="-46.63" gradientUnits="userSpaceOnUse"><stop offset="0" stop-color="#51bbbe"/><stop offset="0.15" stop-color="#49b5c7"/><stop offset="0.39" stop-color="#32a6e1"/><stop offset="0.57" stop-color="#1d98f8"/><stop offset="0.99" stop-color="#020d1e"/></linearGradient><linearGradient id="Degradado_sin_nombre_15-2" x1="1031.12" y1="353.99" x2="-352.82" y2="-75.27" xlink:href="#Degradado_sin_nombre_15"/><linearGradient id="Degradado_sin_nombre_15-3" x1="1040.63" y1="323.35" x2="-343.32" y2="-105.92" xlink:href="#Degradado_sin_nombre_15"/><linearGradient id="Degradado_sin_nombre_15-4" x1="1048.55" y1="297.81" x2="-335.4" y2="-131.46" xlink:href="#Degradado_sin_nombre_15"/><linearGradient id="Degradado_sin_nombre_15-5" x1="1062.48" y1="252.9" x2="-321.46" y2="-176.37" xlink:href="#Degradado_sin_nombre_15"/><linearGradient id="Degradado_sin_nombre_15-6" x1="1069.57" y1="230.05" x2="-314.38" y2="-199.21" xlink:href="#Degradado_sin_nombre_15"/><linearGradient id="Degradado_sin_nombre_15-7" x1="1082.11" y1="189.61" x2="-301.83" y2="-239.66" xlink:href="#Degradado_sin_nombre_15"/><linearGradient id="Degradado_sin_nombre_15-8" x1="1091.99" y1="157.77" x2="-291.96" y2="-271.5" xlink:href="#Degradado_sin_nombre_15"/><linearGradient id="Degradado_sin_nombre_15-9" x1="1012.37" y1="393.29" x2="-371.58" y2="-35.98" xlink:href="#Degradado_sin_nombre_15"/><linearGradient id="Degradado_sin_nombre_15-10" x1="1004.06" y1="441.43" x2="-379.88" y2="12.16" xlink:href="#Degradado_sin_nombre_15"/></defs><title>chainback-SVG</title><path class="cls-1" d="M112.46,74.21a3.31,3.31,0,0,1,1-2.61,3.63,3.63,0,0,1,2.51-.95H124a3.62,3.62,0,0,1,2.51.95,3.32,3.32,0,0,1,1,2.61v81.58a3.59,3.59,0,0,1-3.56,3.56H116a3.57,3.57,0,0,1-3.55-3.56ZM138.19,110a3.57,3.57,0,0,1,3.55-3.56h49.58V74.21a3.4,3.4,0,0,1,1.06-2.51,3.47,3.47,0,0,1,2.54-1h7.85a3.5,3.5,0,0,1,2.55,1,3.44,3.44,0,0,1,1.06,2.51v81.58a3.42,3.42,0,0,1-1.06,2.51,3.5,3.5,0,0,1-2.55,1h-7.85a3.47,3.47,0,0,1-2.54-1,3.39,3.39,0,0,1-1.06-2.51V119.6H141.74a3.63,3.63,0,0,1-2.51-.94,3.33,3.33,0,0,1-1-2.61Z" transform="translate(0 0.2)"/><path class="cls-2" d="M274.57,74.21a5.81,5.81,0,0,1,2.2-2.51,5.44,5.44,0,0,1,3-1h7.53a5.49,5.49,0,0,1,3,1,7.63,7.63,0,0,1,2.4,2.51l43.3,81.58a6.94,6.94,0,0,1,.42,1.67c0,1.26-.7,1.89-2.09,1.89h-9.62a4.31,4.31,0,0,1-3.77-2.51l-9.83-18.41H270.39c-1.4,0-2.09-.63-2.09-1.88a6.69,6.69,0,0,1,.41-1.68l3.35-6.48a4.3,4.3,0,0,1,3.77-2.51h28.65L283.36,84.67l-36.82,72.17a3.73,3.73,0,0,1-1.57,1.77,4.12,4.12,0,0,1-2.19.74h-9c-1.39,0-2.09-.63-2.09-1.89a6.94,6.94,0,0,1,.42-1.67Z" transform="translate(0 0.2)"/><path class="cls-3" d="M361.38,74.21a3.57,3.57,0,0,1,3.56-3.56h7.94a3.59,3.59,0,0,1,3.56,3.56v81.58a3.59,3.59,0,0,1-3.56,3.56h-7.94a3.57,3.57,0,0,1-3.56-3.56Z" transform="translate(0 0.2)"/><path class="cls-4" d="M413.05,74.21a3.31,3.31,0,0,1,1-2.61,3.62,3.62,0,0,1,2.51-.95h4.19a8.34,8.34,0,0,1,3.45.95,13.17,13.17,0,0,1,3.66,2.61l63.59,64.64V74.21a3.63,3.63,0,0,1,.94-2.51,3.33,3.33,0,0,1,2.61-1h6.7a3.57,3.57,0,0,1,3.55,3.56v81.58a3.57,3.57,0,0,1-3.55,3.56h-6.91a3,3,0,0,1-2.71-1.26L413.05,77.77Zm0,19c0-.7.2-1,.62-1a5.17,5.17,0,0,1,1.89,1l9.2,9.2a14.23,14.23,0,0,1,1.46,2.2,4.28,4.28,0,0,1,.63,2v49.16a3.61,3.61,0,0,1-.94,2.51,3.33,3.33,0,0,1-2.61,1h-6.7a3.57,3.57,0,0,1-3.55-3.56Z" transform="translate(0 0.2)"/><path class="cls-5" d="M549,55.38a4,4,0,0,1,1-2.82,3.53,3.53,0,0,1,2.72-1.15h64.57a28.11,28.11,0,0,1,11.21,2.3,30.59,30.59,0,0,1,9.33,6.17,28.33,28.33,0,0,1,6.29,9.21,27.82,27.82,0,0,1,2.31,11.19,25.41,25.41,0,0,1-3.08,12.34,32.11,32.11,0,0,1-7.95,9.62,34.79,34.79,0,0,1,10.25,11,28,28,0,0,1,3.92,14.54A30.2,30.2,0,0,1,647.11,140a32.07,32.07,0,0,1-16.88,16.84A30.37,30.37,0,0,1,618,159.35h-65.2a3.6,3.6,0,0,1-3.77-3.77Zm16.11,10.46v79.07h51.3a17.59,17.59,0,0,0,13-5.12,17,17,0,0,0,5.11-12.45,19,19,0,0,0-4.28-12.24Q626,109.78,618,109.77H580.6a3.6,3.6,0,0,1-3.77-3.76V99.73A3.6,3.6,0,0,1,580.6,96h35.56q7.11,0,11.19-4.49a15.22,15.22,0,0,0,4.08-10.57,14.35,14.35,0,0,0-4.49-10.66,15.28,15.28,0,0,0-11.15-4.4Z" transform="translate(0 0.2)"/><path class="cls-6" d="M712.59,74.21a5.81,5.81,0,0,1,2.2-2.51,5.44,5.44,0,0,1,3-1h7.53a5.46,5.46,0,0,1,3,1,7.56,7.56,0,0,1,2.41,2.51l43.3,81.58a6.94,6.94,0,0,1,.42,1.67c0,1.26-.7,1.89-2.09,1.89h-9.63a4.31,4.31,0,0,1-3.76-2.51l-9.83-18.41H708.41c-1.4,0-2.1-.63-2.1-1.88a6.87,6.87,0,0,1,.42-1.68l3.35-6.48a4.29,4.29,0,0,1,3.76-2.51H742.5L721.38,84.67l-36.82,72.17a3.73,3.73,0,0,1-1.57,1.77,4.12,4.12,0,0,1-2.2.74h-9c-1.4,0-2.09-.63-2.09-1.89a6.94,6.94,0,0,1,.42-1.67Z" transform="translate(0 0.2)"/><path class="cls-7" d="M798.14,81.32a11.22,11.22,0,0,1,2.93-7.11A9.75,9.75,0,0,1,809,70.65h66.52a3.32,3.32,0,0,1,2.61,1,3.63,3.63,0,0,1,.94,2.51v6.07a3.63,3.63,0,0,1-.94,2.51,3.31,3.31,0,0,1-2.61,1H813.2v62.34h64.85a3.35,3.35,0,0,1,2.61,1,3.63,3.63,0,0,1,1,2.51v6.07a3.62,3.62,0,0,1-1,2.51,3.32,3.32,0,0,1-2.61,1H808.81a9.9,9.9,0,0,1-7.74-3.25,10.75,10.75,0,0,1-2.93-7.42Z" transform="translate(0 0.2)"/><path class="cls-8" d="M998.33,156.84c1.11.83,1.67,1.53,1.67,2.09q0,.42-.84.42H981.59a7.39,7.39,0,0,1-2.3-.53,6.52,6.52,0,0,1-2.51-1.57l-51-38.07v36.61a3.57,3.57,0,0,1-3.55,3.56h-8a3.59,3.59,0,0,1-3.56-3.56V74.21a3.32,3.32,0,0,1,1.05-2.61,3.6,3.6,0,0,1,2.51-.95h8a3.63,3.63,0,0,1,2.51.95,3.35,3.35,0,0,1,1,2.61V103.7Zm-51-50.21a3.68,3.68,0,0,1-1,.42,1.21,1.21,0,0,1-.84-.42l-7.11-4.6a1.81,1.81,0,0,1-.63-1.25,2,2,0,0,1,.63-1.47l36.82-27.4a4.45,4.45,0,0,1,2.09-1.15,15.12,15.12,0,0,1,1.88-.11h15.27q.63,0,.63.42c0,.28-.49.84-1.46,1.68Z" transform="translate(0 0.2)"/><path class="cls-9" d="M181,186.24a97,97,0,1,1,0-142.48,80.76,80.76,0,0,1,18.17-7.56,115.2,115.2,0,1,0,0,157.6A80.76,80.76,0,0,1,181,186.24Z" transform="translate(0 0.2)"/><polyline class="cls-10" points="163.99 172.8 206.43 172.8 206.43 215.24"/></svg>